<mxfile host="app.diagrams.net" modified="2023-11-20T21:23:12.944Z" agent="Mozilla/5.0 (Windows NT 10.0; Win64; x64) AppleWebKit/537.36 (KHTML, like Gecko) Chrome/119.0.0.0 Safari/537.36" version="22.1.3" etag="7XAPT39dfNwnBuWhGaCH" type="device">
  <diagram id="WcUz6FNorSwn4v0EWlpC" name="Page-1">
    <mxGraphModel dx="882" dy="578" grid="1" gridSize="10" guides="1" tooltips="1" connect="1" arrows="1" fold="1" page="1" pageScale="1" pageWidth="850" pageHeight="1100" math="0" shadow="0">
      <root>
        <mxCell id="0" />
        <mxCell id="1" parent="0" />
        <mxCell id="cuFi0loZ5VFuUaCS2HtD-11" style="edgeStyle=orthogonalEdgeStyle;rounded=0;orthogonalLoop=1;jettySize=auto;html=1;exitX=0;exitY=0.5;exitDx=0;exitDy=0;entryX=0.5;entryY=0;entryDx=0;entryDy=0;" edge="1" parent="1" source="cuFi0loZ5VFuUaCS2HtD-1" target="cuFi0loZ5VFuUaCS2HtD-2">
          <mxGeometry relative="1" as="geometry" />
        </mxCell>
        <mxCell id="cuFi0loZ5VFuUaCS2HtD-15" style="edgeStyle=orthogonalEdgeStyle;rounded=0;orthogonalLoop=1;jettySize=auto;html=1;exitX=0.5;exitY=1;exitDx=0;exitDy=0;entryX=0.5;entryY=0;entryDx=0;entryDy=0;" edge="1" parent="1" source="cuFi0loZ5VFuUaCS2HtD-1" target="cuFi0loZ5VFuUaCS2HtD-5">
          <mxGeometry relative="1" as="geometry" />
        </mxCell>
        <mxCell id="cuFi0loZ5VFuUaCS2HtD-23" style="edgeStyle=orthogonalEdgeStyle;rounded=0;orthogonalLoop=1;jettySize=auto;html=1;exitX=1;exitY=0.5;exitDx=0;exitDy=0;entryX=0.5;entryY=0;entryDx=0;entryDy=0;" edge="1" parent="1" source="cuFi0loZ5VFuUaCS2HtD-1" target="cuFi0loZ5VFuUaCS2HtD-7">
          <mxGeometry relative="1" as="geometry" />
        </mxCell>
        <mxCell id="cuFi0loZ5VFuUaCS2HtD-1" value="User" style="rounded=1;whiteSpace=wrap;html=1;" vertex="1" parent="1">
          <mxGeometry x="280" y="40" width="120" height="60" as="geometry" />
        </mxCell>
        <mxCell id="cuFi0loZ5VFuUaCS2HtD-12" style="edgeStyle=orthogonalEdgeStyle;rounded=0;orthogonalLoop=1;jettySize=auto;html=1;exitX=0.5;exitY=1;exitDx=0;exitDy=0;entryX=0.5;entryY=0;entryDx=0;entryDy=0;" edge="1" parent="1" source="cuFi0loZ5VFuUaCS2HtD-2" target="cuFi0loZ5VFuUaCS2HtD-3">
          <mxGeometry relative="1" as="geometry" />
        </mxCell>
        <mxCell id="cuFi0loZ5VFuUaCS2HtD-2" value="Block servers" style="rounded=1;whiteSpace=wrap;html=1;" vertex="1" parent="1">
          <mxGeometry x="40" y="160" width="120" height="60" as="geometry" />
        </mxCell>
        <mxCell id="cuFi0loZ5VFuUaCS2HtD-13" style="edgeStyle=orthogonalEdgeStyle;rounded=0;orthogonalLoop=1;jettySize=auto;html=1;exitX=0.5;exitY=1;exitDx=0;exitDy=0;entryX=0.5;entryY=0;entryDx=0;entryDy=0;" edge="1" parent="1" source="cuFi0loZ5VFuUaCS2HtD-3" target="cuFi0loZ5VFuUaCS2HtD-4">
          <mxGeometry relative="1" as="geometry" />
        </mxCell>
        <mxCell id="cuFi0loZ5VFuUaCS2HtD-14" style="edgeStyle=orthogonalEdgeStyle;rounded=0;orthogonalLoop=1;jettySize=auto;html=1;exitX=1;exitY=0.5;exitDx=0;exitDy=0;entryX=0;entryY=0.5;entryDx=0;entryDy=0;" edge="1" parent="1" source="cuFi0loZ5VFuUaCS2HtD-3" target="cuFi0loZ5VFuUaCS2HtD-5">
          <mxGeometry relative="1" as="geometry" />
        </mxCell>
        <mxCell id="cuFi0loZ5VFuUaCS2HtD-3" value="Cloud storage" style="rounded=1;whiteSpace=wrap;html=1;" vertex="1" parent="1">
          <mxGeometry x="40" y="280" width="120" height="60" as="geometry" />
        </mxCell>
        <mxCell id="cuFi0loZ5VFuUaCS2HtD-4" value="Cold storage" style="rounded=1;whiteSpace=wrap;html=1;" vertex="1" parent="1">
          <mxGeometry x="40" y="400" width="120" height="60" as="geometry" />
        </mxCell>
        <mxCell id="cuFi0loZ5VFuUaCS2HtD-16" style="edgeStyle=orthogonalEdgeStyle;rounded=0;orthogonalLoop=1;jettySize=auto;html=1;exitX=0.5;exitY=1;exitDx=0;exitDy=0;entryX=0.5;entryY=0;entryDx=0;entryDy=0;" edge="1" parent="1" source="cuFi0loZ5VFuUaCS2HtD-5" target="cuFi0loZ5VFuUaCS2HtD-6">
          <mxGeometry relative="1" as="geometry" />
        </mxCell>
        <mxCell id="cuFi0loZ5VFuUaCS2HtD-5" value="Load balancer" style="rounded=1;whiteSpace=wrap;html=1;" vertex="1" parent="1">
          <mxGeometry x="280" y="160" width="120" height="60" as="geometry" />
        </mxCell>
        <mxCell id="cuFi0loZ5VFuUaCS2HtD-20" style="edgeStyle=orthogonalEdgeStyle;rounded=0;orthogonalLoop=1;jettySize=auto;html=1;exitX=0.75;exitY=1;exitDx=0;exitDy=0;entryX=0.5;entryY=0;entryDx=0;entryDy=0;" edge="1" parent="1" source="cuFi0loZ5VFuUaCS2HtD-6" target="cuFi0loZ5VFuUaCS2HtD-9">
          <mxGeometry relative="1" as="geometry" />
        </mxCell>
        <mxCell id="cuFi0loZ5VFuUaCS2HtD-21" style="edgeStyle=orthogonalEdgeStyle;rounded=0;orthogonalLoop=1;jettySize=auto;html=1;exitX=0.25;exitY=1;exitDx=0;exitDy=0;entryX=0.5;entryY=0;entryDx=0;entryDy=0;" edge="1" parent="1" source="cuFi0loZ5VFuUaCS2HtD-6" target="cuFi0loZ5VFuUaCS2HtD-8">
          <mxGeometry relative="1" as="geometry" />
        </mxCell>
        <mxCell id="cuFi0loZ5VFuUaCS2HtD-22" style="edgeStyle=orthogonalEdgeStyle;rounded=0;orthogonalLoop=1;jettySize=auto;html=1;exitX=1;exitY=0.5;exitDx=0;exitDy=0;entryX=0;entryY=0.5;entryDx=0;entryDy=0;" edge="1" parent="1" source="cuFi0loZ5VFuUaCS2HtD-6" target="cuFi0loZ5VFuUaCS2HtD-7">
          <mxGeometry relative="1" as="geometry" />
        </mxCell>
        <mxCell id="cuFi0loZ5VFuUaCS2HtD-6" value="API servers" style="rounded=1;whiteSpace=wrap;html=1;" vertex="1" parent="1">
          <mxGeometry x="280" y="280" width="120" height="60" as="geometry" />
        </mxCell>
        <mxCell id="cuFi0loZ5VFuUaCS2HtD-24" style="edgeStyle=orthogonalEdgeStyle;rounded=0;orthogonalLoop=1;jettySize=auto;html=1;exitX=1;exitY=0.5;exitDx=0;exitDy=0;entryX=0;entryY=0.5;entryDx=0;entryDy=0;" edge="1" parent="1" source="cuFi0loZ5VFuUaCS2HtD-7" target="cuFi0loZ5VFuUaCS2HtD-10">
          <mxGeometry relative="1" as="geometry" />
        </mxCell>
        <mxCell id="cuFi0loZ5VFuUaCS2HtD-7" value="Notification service" style="rounded=1;whiteSpace=wrap;html=1;" vertex="1" parent="1">
          <mxGeometry x="480" y="280" width="120" height="60" as="geometry" />
        </mxCell>
        <mxCell id="cuFi0loZ5VFuUaCS2HtD-8" value="Metadata cache" style="rounded=1;whiteSpace=wrap;html=1;" vertex="1" parent="1">
          <mxGeometry x="200" y="400" width="120" height="60" as="geometry" />
        </mxCell>
        <mxCell id="cuFi0loZ5VFuUaCS2HtD-9" value="Metadata DB" style="rounded=1;whiteSpace=wrap;html=1;" vertex="1" parent="1">
          <mxGeometry x="360" y="400" width="120" height="60" as="geometry" />
        </mxCell>
        <mxCell id="cuFi0loZ5VFuUaCS2HtD-10" value="Offline backup queue" style="rounded=1;whiteSpace=wrap;html=1;" vertex="1" parent="1">
          <mxGeometry x="680" y="280" width="120" height="60" as="geometry" />
        </mxCell>
      </root>
    </mxGraphModel>
  </diagram>
</mxfile>
